<svg id="Ebene_1" data-name="Ebene 1" xmlns="http://www.w3.org/2000/svg" viewBox="0 0 32 40"><defs><style>.cls-1,.cls-3{fill:#fff;}.cls-2{fill:#c97312;}.cls-3{fill-rule:evenodd;}</style></defs><title>map-pin</title><path d="M0,16C0,28.67,16,40,16,40S32,28.67,32,16Z"/><rect width="32" height="32" rx="16"/><path class="cls-1" d="M27.46,14.74,24.82,9.07l-7.41,3.46,1.88-5.18L13.42,5.21,11.81,9.63A4.89,4.89,0,1,0,8.7,18.18L7.09,22.61,13,24.75l1.89-5.19L18.3,27,24,24.33l-3-6.54Z"/><circle class="cls-2" cx="8.56" cy="13.29" r="3.97"/><path class="cls-3" d="M10.62,11.88a2.68,2.68,0,0,0-.84-.78,3.26,3.26,0,0,0,.4-1,3.85,3.85,0,0,1,1.13.87A3.81,3.81,0,0,1,10.62,11.88Z"/></svg>
