<svg id="Ebene_1" data-name="Ebene 1" xmlns="http://www.w3.org/2000/svg" viewBox="0 0 128 128"><path d="M6,12.4a3.87,3.87,0,0,0,0,7.74h12.9C25.3,36,31.56,51.89,37.92,67.79L32,81.86a3.89,3.89,0,0,0,.34,3.64,4,4,0,0,0,3.24,1.73h64.51a3.87,3.87,0,0,0,0-7.74H41.43l3.34-8,62.14-5a4,4,0,0,0,3.45-3L118.1,30a4,4,0,0,0-3.3-4.66l-.48-.05H29.17L25,14.81a4,4,0,0,0-3.59-2.41ZM32.25,33h24V44.65H36.91ZM64,33H79.44V44.65H64Zm23.23,0h22.27l-2.67,11.61H87.23ZM40,52.39H56.27V62.83l-11.62.93Zm24,0H79.44V61L64,62.26Zm23.23,0H105l-1.54,6.69-16.2,1.29ZM48.47,89.81a12.88,12.88,0,1,0,.05,0Zm38.71,0a12.9,12.9,0,1,0,12.9,12.9,12.9,12.9,0,0,0-12.9-12.9ZM48.47,97.55a5.16,5.16,0,1,1-5.16,5.16,5.16,5.16,0,0,1,5.16-5.16h0Zm38.71,0A5.16,5.16,0,1,1,82,102.71a5.16,5.16,0,0,1,5.16-5.16h0Z"/></svg>