<svg id="Ebene_1" data-name="Ebene 1" xmlns="http://www.w3.org/2000/svg" viewBox="0 0 128 128"><path d="M116.92,83.91H112c-1.53-17.46-13-31.42-27.37-33.63V42a4,4,0,0,0-4-4H58.33V31.61H65a3,3,0,0,0,3-3V14.75a3,3,0,0,0-3-3H35.16a3,3,0,0,0-3,3V28.61a3,3,0,0,0,3,3h5.22V38H17.27a4,4,0,0,0-4,4v72.22a4,4,0,0,0,4,4h99.65a4,4,0,0,0,4-4V87.91A4,4,0,0,0,116.92,83.91Zm-4,13.15H70.42V91.91h42.5ZM26,54a4,4,0,0,0,4,4C43,58,53.54,71.4,53.54,87.91a4,4,0,0,0,4,4h4.88v18.3H21.27V46H26Zm78,29.94H61.37c-.92-10.52-5.44-19.77-12-25.94H80.66C92.57,58,102.44,69.28,104,83.91ZM76.66,50H34V46H76.66ZM38.16,17.75H62v7.86H38.16Zm8.22,13.86h5.95V38H46.38Zm24,78.6v-5.15h42.5v5.15Z"/><path d="M66.06,62.44a3,3,0,0,0-3-3H59.28a3,3,0,0,0,0,6h3.78A3,3,0,0,0,66.06,62.44Z"/><path d="M69.78,65.44h3.78a3,3,0,0,0,0-6H69.78a3,3,0,0,0,0,6Z"/><path d="M77.28,62.44a3,3,0,0,0,3,3h3.79a3,3,0,0,0,0-6H80.28A3,3,0,0,0,77.28,62.44Z"/><path d="M71.34,70.66a3,3,0,0,0-3-3H64.55a3,3,0,1,0,0,6h3.79A3,3,0,0,0,71.34,70.66Z"/><path d="M72.05,70.66a3,3,0,0,0,3,3h3.79a3,3,0,0,0,0-6H75.05A3,3,0,0,0,72.05,70.66Z"/><path d="M82.55,70.66a3,3,0,0,0,3,3h3.79a3,3,0,0,0,0-6H85.55A3,3,0,0,0,82.55,70.66Z"/><path d="M72.48,75.87H68.69a3,3,0,0,0,0,6h3.79a3,3,0,1,0,0-6Z"/><path d="M83,75.87H79.19a3,3,0,0,0,0,6H83a3,3,0,1,0,0-6Z"/><path d="M86.7,78.87a3,3,0,0,0,3,3h3.78a3,3,0,1,0,0-6H89.7A3,3,0,0,0,86.7,78.87Z"/></svg>