<svg id="Ebene_1" data-name="Ebene 1" xmlns="http://www.w3.org/2000/svg" viewBox="0 0 128 128"><defs><style>.cls-1,.cls-2{fill:none;stroke:#000;stroke-linecap:round;stroke-linejoin:round;}.cls-1{stroke-width:8px;}.cls-2{stroke-width:4px;}</style></defs><polyline class="cls-1" points="66.28 26.73 83.46 26.73 83.46 38.85 83.46 73.66 83.46 97.06 49.9 97.06"/><polyline class="cls-1" points="20.17 74.88 20.17 97.06 24.5 97.06"/><polygon class="cls-2" points="92.1 68.34 92.1 47.81 101.58 47.81 107.81 68.34 92.1 68.34"/><path class="cls-1" d="M118.27,73.66V97.55H112.8a13.41,13.41,0,0,0-25.7,0H83.46V38.85h24.26Z"/><path class="cls-1" d="M50.61,101.39a13.39,13.39,0,1,1-.71-4.33A13.42,13.42,0,0,1,50.61,101.39Z"/><path class="cls-1" d="M113.36,101.39a13.41,13.41,0,0,1-26.82,0,13.11,13.11,0,0,1,.56-3.84,13.41,13.41,0,0,1,25.7,0A13.11,13.11,0,0,1,113.36,101.39Z"/><line class="cls-1" x1="10.07" y1="64" x2="30.64" y2="64"/><line class="cls-1" x1="40.97" y1="51.44" x2="7.81" y2="51.44"/><line class="cls-1" x1="14.6" y1="38.85" x2="47.52" y2="38.85"/><line class="cls-1" x1="6.01" y1="26.73" x2="56.34" y2="26.73"/></svg>